<?xml version="1.0" standalone="no"?>
<!DOCTYPE svg PUBLIC "-//W3C//DTD SVG 20010904//EN"
 "http://www.w3.org/TR/2001/REC-SVG-20010904/DTD/svg10.dtd">
<svg version="1.0" xmlns="http://www.w3.org/2000/svg"
 width="1024.000000pt" height="1024.000000pt" viewBox="0 0 1024.000000 1024.000000"
 preserveAspectRatio="xMidYMid meet">
<metadata>
Created by potrace 1.11, written by Peter Selinger 2001-2013
</metadata>
<g transform="translate(0.000000,1024.000000) scale(0.100000,-0.100000)"
fill="#000000" stroke="none">
<path d="M4858 9395 c-2 -1 -50 -6 -108 -9 -58 -4 -118 -9 -135 -11 -16 -2
-50 -7 -75 -10 -25 -3 -54 -7 -65 -9 -11 -2 -56 -9 -100 -16 -44 -6 -132 -23
-195 -37 -63 -13 -124 -26 -136 -29 -11 -2 -68 -18 -125 -34 -57 -17 -111 -33
-119 -35 -8 -2 -15 -4 -15 -5 0 -1 -7 -3 -15 -5 -13 -3 -112 -38 -280 -100
-39 -14 -375 -178 -456 -223 -76 -42 -313 -193 -335 -214 -8 -7 -46 -34 -84
-60 -119 -80 -382 -305 -529 -454 -150 -151 -335 -364 -448 -518 -70 -95 -216
-318 -261 -399 -96 -171 -131 -243 -222 -452 -68 -157 -168 -471 -201 -630 -4
-22 -7 -35 -28 -120 -7 -33 -16 -80 -20 -105 -3 -25 -8 -56 -11 -70 -3 -14 -7
-46 -10 -71 -3 -25 -7 -54 -9 -65 -2 -10 -6 -50 -10 -89 -3 -38 -9 -95 -12
-125 -18 -188 -18 -555 0 -755 3 -33 8 -91 11 -130 3 -38 8 -81 11 -95 2 -14
6 -34 8 -45 2 -11 9 -56 16 -100 15 -103 14 -100 45 -235 14 -63 27 -124 30
-135 2 -11 9 -36 15 -55 6 -19 13 -44 15 -54 3 -11 11 -40 20 -66 9 -26 17
-55 19 -66 6 -31 111 -303 146 -379 90 -197 192 -385 291 -539 248 -388 583
-762 959 -1070 118 -97 111 -91 195 -150 39 -28 72 -53 75 -56 10 -14 277
-178 365 -225 253 -135 517 -251 678 -296 59 -17 54 -16 147 -44 47 -14 94
-27 105 -29 11 -3 52 -12 90 -21 39 -9 81 -19 95 -21 14 -3 32 -7 40 -9 8 -2
29 -6 45 -9 229 -37 290 -46 345 -51 36 -2 94 -7 130 -11 191 -17 595 -17 747
0 26 4 82 9 123 11 41 3 129 15 195 26 66 11 131 22 145 24 14 2 54 11 90 19
36 8 97 21 135 29 39 9 82 20 95 25 14 5 30 10 35 11 8 1 60 16 95 26 3 1 19
5 35 10 51 14 292 103 368 136 138 61 428 209 458 235 8 8 19 14 22 14 10 0
198 120 223 142 11 10 25 18 31 18 6 0 13 4 15 8 2 4 39 35 83 67 242 177 554
468 740 690 28 33 58 69 69 80 73 80 366 499 366 525 0 4 4 10 10 12 10 3 220
416 256 503 80 192 182 525 220 720 30 154 50 275 59 360 3 28 8 61 10 75 26
154 32 704 10 875 -2 17 -6 68 -10 115 -3 47 -10 108 -15 135 -6 28 -12 68
-15 90 -2 22 -7 51 -10 65 -3 14 -7 39 -9 55 -8 59 -58 272 -91 385 -81 276
-130 404 -264 680 -47 96 -132 247 -200 355 -72 115 -252 365 -288 403 -10 10
-45 51 -78 92 -99 122 -295 323 -460 471 -127 115 -375 309 -394 309 -5 0 -11
4 -13 9 -4 11 -107 81 -119 81 -5 0 -9 5 -9 10 0 6 -4 10 -10 10 -5 0 -40 20
-77 43 -223 143 -613 322 -863 396 -41 13 -102 31 -135 41 -33 11 -71 21 -85
24 -14 2 -83 18 -155 34 -120 28 -161 35 -255 48 -19 2 -60 9 -90 14 -30 5
-89 12 -130 15 -41 4 -91 9 -110 12 -37 5 -636 13 -642 8z m398 -1097 c302
-303 315 -321 317 -419 1 -79 -31 -126 -210 -307 -91 -92 -171 -181 -179 -198
-24 -56 -6 -97 80 -188 110 -117 106 -155 -33 -295 -55 -55 -110 -103 -123
-106 -12 -3 -68 -7 -123 -9 -55 -2 -110 -4 -123 -5 -26 -1 -222 -188 -246
-235 -19 -37 -13 -86 18 -149 91 -188 221 -459 237 -496 27 -61 27 -111 0
-155 -31 -50 -53 -59 -152 -63 -109 -3 -123 4 -277 145 -62 57 -141 93 -205
93 -50 1 -95 -12 -402 -111 -55 -17 -129 -40 -165 -51 -135 -40 -197 -104
-204 -213 -4 -59 16 -118 50 -148 17 -15 271 -158 280 -158 2 0 23 -9 47 -20
95 -44 232 -75 377 -86 36 -3 75 -6 86 -8 61 -11 148 -84 232 -195 31 -42 59
-78 62 -81 3 -3 29 -36 58 -75 29 -38 80 -98 113 -132 l60 -63 67 -1 c37 0
324 -1 637 -2 565 -3 571 -3 635 -25 102 -36 163 -83 341 -261 186 -187 231
-254 257 -386 11 -54 4 -209 -11 -276 -43 -180 -105 -277 -310 -486 -84 -85
-159 -169 -169 -186 -9 -18 -28 -77 -43 -131 -15 -55 -34 -118 -42 -140 -8
-23 -16 -48 -18 -56 -8 -32 -308 -855 -315 -863 -3 -4 -42 -14 -86 -22 -43 -8
-88 -16 -99 -18 -35 -8 -98 -17 -160 -23 -33 -3 -73 -8 -90 -10 -16 -2 -92 -7
-168 -10 l-137 -6 0 289 c1 159 -1 295 -4 303 -3 8 -7 34 -10 57 -5 40 -46
175 -66 218 -5 11 -23 52 -40 90 -28 63 -105 202 -120 215 -3 3 -19 24 -36 47
-17 23 -56 70 -87 105 -111 125 -110 123 -157 233 -26 59 -31 125 -32 451 -1
390 -8 446 -66 557 -57 109 -133 175 -317 272 -60 32 -114 61 -120 65 -5 4
-68 38 -140 75 -71 38 -134 71 -140 75 -5 4 -93 51 -195 103 -210 108 -307
163 -435 251 -89 61 -107 75 -148 110 -12 10 -47 38 -77 61 -51 40 -134 123
-221 220 -34 39 -144 188 -183 250 -11 16 -23 34 -28 40 -14 16 -128 187 -128
191 0 2 -18 27 -40 56 -22 29 -40 58 -40 65 0 6 -3 13 -7 15 -5 2 -60 82 -123
178 -63 96 -117 177 -120 180 -3 3 -18 25 -34 49 l-29 45 64 130 c35 72 69
138 75 146 6 8 32 53 59 100 45 80 169 268 207 314 265 325 384 445 606 616
18 14 43 33 55 44 34 28 246 169 302 200 28 16 55 32 62 38 6 5 87 47 179 92
l167 84 233 -115 c206 -102 239 -116 297 -120 55 -5 73 -2 118 20 48 22 94 59
124 99 32 41 42 98 41 220 -1 70 1 125 4 123 3 -1 43 4 90 11 47 7 117 16 155
19 39 4 71 8 72 9 2 1 24 3 50 5 l48 2 271 -273z m2972 -1680 c66 -141 83
-181 112 -258 17 -47 36 -94 41 -105 6 -12 11 -27 13 -35 4 -22 37 -132 47
-155 10 -24 57 -221 69 -290 5 -27 11 -59 14 -70 2 -11 7 -49 11 -85 4 -36 9
-67 10 -70 18 -30 27 -607 12 -725 -4 -33 -10 -80 -13 -105 -4 -25 -7 -46 -8
-47 -1 -1 -33 7 -71 18 -93 26 -142 40 -320 90 -178 49 -223 68 -276 116 -40
36 -379 534 -412 603 -38 83 -47 201 -21 285 18 58 38 94 136 249 48 76 88
142 88 146 0 5 3 10 8 12 4 2 40 56 80 120 93 150 138 189 317 278 77 38 141
69 142 70 0 0 10 -19 21 -42z"/>
</g>
</svg>
